HIERARCHY
ROOT hip
{
	OFFSET 0.000000 0.000000 0.000000
	CHANNELS 6 Xposition Yposition Zposition Xrotation Zrotation Yrotation 
	JOINT abdomen
	{
		OFFSET 0.000000 3.422050 0.000000
		CHANNELS 3 Xrotation Zrotation Yrotation 
		JOINT chest
		{
			OFFSET 0.000000 8.486693 -0.684411
			CHANNELS 3 Xrotation Zrotation Yrotation 
			JOINT neck
			{
				OFFSET 0.000000 10.266162 -0.273764
				CHANNELS 3 Xrotation Zrotation Yrotation 
				JOINT head
				{
					OFFSET 0.000000 3.148285 0.000000
					CHANNELS 3 Xrotation Zrotation Yrotation 
					End Site
					{
						OFFSET 0.000000 3.148289 0.000000
					}
				}
			}
			JOINT lCollar
			{
				OFFSET 3.422053 6.707223 -0.821293
				CHANNELS 3 Yrotation Zrotation Xrotation 
				JOINT lShldr
				{
					OFFSET 3.285171 0.000000 0.000000
					CHANNELS 3 Zrotation Yrotation Xrotation 
					JOINT lForeArm
					{
						OFFSET 10.129278 0.000000 0.000000
						CHANNELS 3 Yrotation Zrotation Xrotation 
						JOINT lHand
						{
							OFFSET 8.486692 0.000000 0.000000
							CHANNELS 3 Zrotation Yrotation Xrotation 
							End Site
							{
								OFFSET 4.106464 0.000000 0.000000
							}
						}
					}
				}
			}
			JOINT rCollar
			{
				OFFSET -3.558935 6.707223 -0.821293
				CHANNELS 3 Yrotation Zrotation Xrotation 
				JOINT rShldr
				{
					OFFSET -3.148289 0.000000 0.000000
					CHANNELS 3 Zrotation Yrotation Xrotation 
					JOINT rForeArm
					{
						OFFSET -10.266159 0.000000 0.000000
						CHANNELS 3 Yrotation Zrotation Xrotation 
						JOINT rHand
						{
							OFFSET -8.349810 0.000000 0.000000
							CHANNELS 3 Zrotation Yrotation Xrotation 
							End Site
							{
								OFFSET -4.106464 0.000000 0.000000
							}
						}
					}
				}
			}
		}
	}
	JOINT lThigh
	{
		OFFSET 5.338403 -1.642589 1.368821
		CHANNELS 3 Xrotation Zrotation Yrotation 
		JOINT lShin
		{
			OFFSET -2.053232 -20.121670 0.000000
			CHANNELS 3 Xrotation Zrotation Yrotation 
			JOINT lFoot
			{
				OFFSET 0.000000 -19.300380 -1.231939
				CHANNELS 3 Xrotation Yrotation Zrotation 
				End Site
				{
					OFFSET 0.000000 -2.463878 4.653993
				}
			}
		}
	}
	JOINT rThigh
	{
		OFFSET -5.338403 -1.642589 1.368821
		CHANNELS 3 Xrotation Zrotation Yrotation 
		JOINT rShin
		{
			OFFSET 2.053232 -20.121670 0.000000
			CHANNELS 3 Xrotation Zrotation Yrotation 
			JOINT rFoot
			{
				OFFSET 0.000000 -19.300380 -1.231939
				CHANNELS 3 Xrotation Yrotation Zrotation 
				End Site
				{
					OFFSET 0.000000 -2.463878 4.653993
				}
			}
		}
	}
}
MOTION
Frames: 8
Frame Time: 0.033264
0.000000 43.528500 0.000000 0.000000 0.000000 0.000000 0.000000 0.000000 0.000000 0.000000 0.000000 0.000000 0.000000 0.000000 0.000000 0.000000 0.000000 0.000000 0.000000 0.000000 0.000000 0.000000 0.000000 0.000000 0.000000 0.000000 0.000000 0.000000 0.000000 0.000000 0.000000 0.000000 0.000000 0.000000 0.000000 0.000000 0.000000 0.000000 0.000000 0.000000 0.000000 0.000000 0.000000 0.000000 0.000000 0.000000 0.000000 0.000000 0.000000 0.000000 0.000000 0.000000 0.000000 0.000000 0.000000 0.000000 0.000000 0.000000 0.000000 0.000000 
-1.012264 7.823059 0.000000 -72.001060 0.000000 0.000000 41.314312 -0.788261 -0.392490 21.732264 -3.063488 -0.711087 0.033258 -0.057680 -0.075202 0.057719 -0.036694 -0.050728 -20.649605 -25.021227 -3.947484 -12.802541 -17.207342 2.743862 -57.494305 -4.360387 -6.394248 -7.000325 0.000000 0.000000 28.291201 15.517286 -6.456243 5.998623 26.998621 -7.001945 65.996376 4.998150 -5.998523 6.996831 -0.000084 -0.141900 -15.796643 14.811826 14.341439 10.208740 -1.981909 -0.080483 13.611595 2.328721 5.489282 -45.881214 -18.374779 -0.031818 77.358597 2.288759 0.176950 15.037885 -1.633111 -5.026803 
-1.012264 7.823059 0.000000 -72.001068 0.000000 0.000000 41.314312 -0.788262 -0.392490 21.732264 -3.063488 -0.711087 0.057538 -0.193923 -0.127928 0.057719 -0.036694 -0.050728 -20.649605 -25.021227 -3.947484 -12.801886 -17.336664 2.644516 -57.494305 -4.360388 -6.394248 -7.000325 0.000000 0.000000 28.291201 15.517286 -6.456243 6.294321 26.917715 -7.097475 65.996376 4.998150 -5.998523 6.996831 -0.000084 -0.141900 -15.796643 14.811826 14.341439 10.208740 -1.981909 -0.080483 13.611595 2.328721 5.489282 -45.881214 -18.374779 -0.031818 77.358597 2.288759 0.176950 15.037885 -1.633111 -5.026803 
-1.012264 7.823059 0.000000 -72.001060 0.000000 0.000000 41.314312 -0.788261 -0.392490 21.732264 -3.063488 -0.711087 0.081951 -0.330180 -0.180728 0.057719 -0.036694 -0.050728 -20.649605 -25.021229 -3.947484 -12.800995 -17.466034 2.545059 -57.494305 -4.360387 -6.394248 -7.000325 0.000000 0.000000 28.291203 15.517286 -6.456243 6.590291 26.837158 -7.193514 65.996376 4.998150 -5.998523 6.996831 -0.000084 -0.141900 -15.796643 14.811826 14.341439 10.208740 -1.981909 -0.080483 13.611596 2.328721 5.489283 -45.881214 -18.374779 -0.031818 77.358597 2.288759 0.176950 15.037886 -1.633111 -5.026803 
-1.012264 7.823059 0.000000 -72.001068 0.000000 0.000000 41.314312 -0.788262 -0.392490 21.732264 -3.063488 -0.711087 0.106496 -0.466452 -0.233600 0.057719 -0.036694 -0.050728 -20.649607 -25.021229 -3.947484 -12.799870 -17.595461 2.445490 -57.494305 -4.360388 -6.394248 -7.000325 0.000000 0.000000 28.291201 15.517288 -6.456243 6.886529 26.756964 -7.290056 65.996376 4.998150 -5.998523 6.996831 -0.000084 -0.141900 -15.796643 14.811826 14.341439 10.208740 -1.981909 -0.080483 13.611595 2.328721 5.489282 -45.881214 -18.374779 -0.031818 77.358604 2.288759 0.176950 15.037885 -1.633111 -5.026803 
-1.012264 7.823059 0.000000 -72.001060 0.000000 0.000000 41.314312 -0.788262 -0.392490 21.732265 -3.063488 -0.711087 0.131174 -0.602737 -0.286546 0.057719 -0.036694 -0.050728 -20.649607 -25.021229 -3.947484 -12.798507 -17.724934 2.345808 -57.494305 -4.360388 -6.394248 -7.000325 0.000000 0.000000 28.291201 15.517286 -6.456243 7.183033 26.677128 -7.387098 65.996376 4.998150 -5.998523 6.996831 -0.000084 -0.141900 -15.796645 14.811827 14.341440 10.208740 -1.981909 -0.080483 13.611595 2.328721 5.489282 -45.881214 -18.374781 -0.031817 77.358597 2.288759 0.176950 15.037885 -1.633111 -5.026804 
-1.012264 7.823059 0.000000 -72.001068 0.000000 0.000000 41.314312 -0.788262 -0.392490 21.732264 -3.063488 -0.711087 0.155985 -0.739035 -0.339566 0.057719 -0.036694 -0.050728 -20.649605 -25.021229 -3.947484 -12.796900 -17.854445 2.246011 -57.494312 -4.360388 -6.394248 -7.000325 0.000000 0.000000 28.291203 15.517286 -6.456243 7.479796 26.597649 -7.484637 65.996376 4.998150 -5.998523 6.996831 -0.000084 -0.141900 -15.796643 14.811826 14.341439 10.208740 -1.981909 -0.080483 13.611595 2.328721 5.489282 -45.881214 -18.374781 -0.031818 77.358597 2.288759 0.176950 15.037885 -1.633111 -5.026803 
-1.012264 7.823059 0.000000 -72.001060 0.000000 0.000000 41.314304 -0.788261 -0.392490 21.732264 -3.063488 -0.711087 0.180929 -0.875345 -0.392661 0.057719 -0.036694 -0.050728 -20.649601 -25.021227 -3.947483 -12.795057 -17.984007 2.146100 -57.494301 -4.360387 -6.394247 -7.000325 0.000000 0.000000 28.291199 15.517286 -6.456242 7.776819 26.518551 -7.582672 65.996368 4.998150 -5.998522 6.996831 -0.000084 -0.141900 -15.796643 14.811826 14.341439 10.208740 -1.981909 -0.080483 13.611595 2.328721 5.489282 -45.881207 -18.374777 -0.031817 77.358597 2.288759 0.176950 15.037883 -1.633111 -5.026803 
